<?xml version="1.0" standalone="no"?>
<!DOCTYPE svg PUBLIC "-//W3C//DTD SVG 20010904//EN"
 "http://www.w3.org/TR/2001/REC-SVG-20010904/DTD/svg10.dtd">
<svg version="1.0" xmlns="http://www.w3.org/2000/svg"
 width="600.000000pt" height="480.000000pt" viewBox="0 0 600.000000 480.000000"
 preserveAspectRatio="xMidYMid meet">

<g transform="translate(0.000000,480.000000) scale(0.100000,-0.100000)"
fill="#000000" stroke="none">
<path d="M4510 4360 c0 -5 5 -10 11 -10 5 0 7 5 4 10 -3 6 -8 10 -11 10 -2 0
-4 -4 -4 -10z"/>
<path d="M4014 4329 c-32 -9 -54 -43 -54 -84 0 -26 50 -146 195 -465 53 -118
126 -280 162 -360 36 -80 90 -198 119 -263 30 -65 54 -120 54 -122 0 -1 17
-41 39 -87 21 -45 60 -130 86 -188 105 -232 127 -276 164 -324 21 -28 50 -69
64 -91 13 -22 48 -65 76 -95 58 -61 116 -172 105 -199 -11 -26 -15 -73 -5 -67
5 3 11 20 15 38 l6 32 16 -23 c13 -18 15 -36 9 -87 -3 -35 -11 -64 -16 -64 -6
0 -8 -8 -6 -17 3 -10 8 -35 12 -56 5 -30 9 -36 19 -28 9 7 16 7 25 -2 9 -9 14
-9 21 3 5 8 11 12 15 9 3 -3 -7 -18 -21 -32 -20 -20 -23 -27 -11 -27 12 0 16
-9 15 -36 -1 -29 -5 -35 -19 -31 -10 3 -23 -1 -30 -9 -6 -8 -8 -14 -4 -14 4 0
2 -7 -6 -16 -10 -13 -10 -17 2 -26 11 -8 11 -9 -3 -5 -19 6 -43 -17 -34 -32 4
-5 -2 -14 -11 -20 -16 -9 -16 -12 -3 -21 12 -9 10 -10 -9 -5 -21 7 -23 5 -19
-18 3 -17 1 -24 -7 -21 -6 3 -18 -2 -25 -11 -10 -12 -10 -15 1 -16 8 -1 1 -4
-15 -8 -17 -3 -29 -10 -27 -16 1 -5 9 -9 17 -7 8 2 14 -2 14 -8 0 -5 -6 -10
-13 -10 -12 0 -25 -17 -68 -89 -8 -14 -25 -27 -37 -29 -17 -3 -22 -10 -22 -34
0 -42 -53 -92 -82 -77 -14 7 -23 7 -33 -1 -13 -11 -13 -15 0 -33 8 -12 15 -29
15 -38 0 -20 34 -52 45 -42 4 5 4 -13 1 -40 -6 -38 -4 -48 8 -53 9 -3 16 -10
16 -16 0 -5 -5 -6 -12 -2 -8 5 -9 2 -5 -9 3 -10 2 -17 -3 -17 -16 0 -31 39
-24 65 9 36 -2 61 -20 46 -11 -9 -15 -9 -18 1 -3 9 -6 9 -12 0 -4 -7 2 -16 18
-23 20 -10 24 -17 19 -39 -3 -19 1 -34 14 -47 18 -18 59 -20 48 -2 -4 5 -1 9
5 9 6 0 8 5 4 11 -4 7 1 10 12 7 27 -5 23 -30 -6 -45 -14 -7 -22 -13 -17 -14
19 -4 23 -5 45 -17 18 -10 22 -10 22 0 0 9 3 9 10 -2 8 -12 10 -9 10 11 0 46
-12 92 -21 78 -6 -10 -11 -5 -18 14 -16 43 -13 52 9 26 14 -17 20 -20 20 -9 1
8 8 2 15 -15 9 -18 14 -23 15 -13 0 11 5 15 15 12 11 -5 15 2 15 27 0 31 1 32
16 17 9 -9 16 -33 16 -54 0 -27 3 -33 8 -20 4 14 9 16 14 8 4 -7 11 -10 16 -7
13 8 31 -31 23 -52 -15 -42 10 3 110 197 223 436 275 527 397 705 27 40 54
107 30 75 -9 -12 -10 -7 -5 20 15 79 27 109 62 154 41 52 88 192 72 213 -7 7
-6 14 1 18 5 3 10 24 10 46 0 36 -2 39 -27 40 -16 1 -50 3 -78 4 -34 2 -74 -5
-123 -21 -50 -17 -77 -22 -86 -15 -14 12 -48 8 -106 -13 -26 -9 -77 -16 -118
-16 -70 0 -74 1 -109 36 -27 28 -38 33 -44 22 -7 -10 -9 -10 -8 2 0 28 66 66
146 84 108 25 376 126 428 162 18 13 16 14 -25 16 -25 1 -54 2 -65 2 -11 1
-30 7 -42 14 -15 8 -29 9 -48 2 -15 -6 -57 -8 -93 -5 -37 3 -74 5 -82 5 -149
-4 -291 18 -348 52 -48 29 -65 59 -53 92 6 14 14 26 18 27 5 0 22 2 38 4 17 2
86 6 155 9 123 5 357 30 366 39 13 13 -15 36 -84 70 l-78 37 -205 0 c-184 0
-207 2 -239 20 -19 10 -43 22 -52 26 -17 6 -48 61 -48 86 0 23 38 39 103 43
256 18 358 26 394 31 l43 5 -16 25 c-9 13 -20 39 -23 56 -7 35 -37 60 -49 42
-4 -7 -26 -12 -49 -12 -24 -1 -76 -12 -117 -26 -105 -36 -136 -35 -188 12 -55
47 -57 50 -50 75 5 18 2 19 -29 13 -19 -3 -35 -11 -37 -16 -2 -6 -10 -10 -17
-10 -8 0 -19 -8 -25 -17 -10 -17 -10 -17 -20 0 -18 29 -26 19 -25 -33 1 -33
-3 -50 -11 -50 -7 0 -14 -6 -17 -12 -7 -23 -34 9 -40 48 -3 20 -18 51 -32 70
-14 19 -24 38 -21 43 4 5 2 19 -2 32 -10 27 16 59 45 55 10 -2 12 -1 6 1 -7 3
-13 11 -13 18 0 11 8 10 40 -3 27 -12 40 -23 40 -36 0 -20 0 -20 15 0 20 26
19 34 -5 34 -11 0 -20 4 -20 10 0 5 3 9 8 8 4 -1 20 4 35 10 16 7 31 12 35 12
4 0 18 16 32 36 13 20 26 31 28 25 2 -6 -9 -28 -24 -49 l-29 -37 27 17 c27 18
40 15 32 -7 -3 -7 4 -15 15 -18 18 -4 20 -1 15 18 -4 15 0 24 10 28 20 8 21
33 1 41 -8 3 -15 14 -15 25 0 10 -6 21 -14 24 -8 3 -16 16 -19 29 -3 15 -5 10
-6 -14 -1 -38 -21 -55 -21 -18 0 20 -14 27 -23 13 -2 -5 -2 -3 -1 4 4 16 -23
36 -36 28 -8 -5 -7 -11 1 -21 9 -11 9 -18 0 -27 -9 -9 -17 -5 -36 15 -29 31
-32 48 -9 48 9 0 14 6 11 13 -2 6 -12 11 -21 9 -12 -2 -16 3 -14 15 2 13 -4
19 -22 21 -14 2 -29 8 -35 14 -7 7 -1 9 18 4 23 -5 27 -3 27 14 0 11 5 20 10
20 6 0 10 7 10 16 0 9 6 14 13 11 8 -3 12 7 13 32 1 20 -1 28 -3 19 -3 -10
-11 -18 -20 -18 -9 0 -13 6 -10 14 3 8 -1 20 -9 26 -8 7 -14 9 -14 6 0 -4 -7
-1 -15 8 -8 8 -15 20 -15 26 0 6 -4 8 -10 5 -15 -9 -11 17 5 39 17 22 16 23
19 -39 1 -17 8 -20 47 -20 31 0 45 -4 42 -11 -2 -7 1 -15 7 -19 6 -4 8 -15 5
-26 -8 -24 13 -26 22 -1 4 9 11 20 16 23 5 4 0 10 -12 14 -13 4 -20 12 -17 20
3 9 -4 15 -17 18 -20 3 -20 4 8 16 25 10 31 10 41 -3 13 -19 17 -19 67 -5 20
5 37 15 37 20 0 6 -9 8 -19 4 -11 -3 -22 -1 -26 5 -3 5 3 10 14 10 19 0 19 2
6 38 -18 50 -46 104 -62 120 -11 11 -13 9 -13 -12 0 -14 -5 -26 -10 -26 -6 0
-10 8 -8 18 3 19 -28 25 -49 9 -10 -7 -12 -2 -9 19 2 16 1 24 -1 17 -6 -16
-31 -24 -38 -13 -4 6 -21 10 -38 9 -31 -1 -31 -1 -7 -9 l25 -8 -25 -1 c-14 0
-32 4 -40 9 -13 8 -13 10 -1 10 11 0 10 4 -4 14 -16 11 -17 17 -7 29 9 10 10
17 2 22 -5 3 -10 1 -10 -4 0 -6 -7 -11 -15 -11 -18 0 -20 16 -2 23 7 3 5 6 -5
6 -13 1 -18 -7 -18 -23 0 -13 -7 -26 -15 -29 -12 -5 -12 -1 -4 21 6 15 10 28
10 30 -5 16 7 21 47 19 34 -1 46 2 44 11 -1 7 4 12 11 10 13 -3 17 3 17 23 0
5 -4 8 -9 5 -5 -4 -12 0 -14 6 -4 10 -8 10 -15 -1 -6 -8 -17 -11 -32 -6 -19 6
-21 4 -15 -15 8 -24 5 -23 -45 10 -14 10 -32 18 -40 18 -64 4 -142 3 -173 -2
-111 -18 -107 -18 -101 -1 3 8 5 15 3 14 -2 0 -18 -5 -35 -10z m330 -25 c9 -8
16 -23 16 -32 0 -13 -5 -11 -20 8 -29 37 -26 55 4 24z m-53 -23 c19 -19 29
-40 29 -59 0 -29 -2 -31 -69 -42 -37 -7 -84 -10 -104 -6 -43 8 -77 47 -77 87
0 30 7 34 75 42 90 12 116 8 146 -22z m96 -113 c-3 -8 -6 -5 -6 6 -1 11 2 17
5 13 3 -3 4 -12 1 -19z m-56 -18 c-8 -4 -21 -5 -30 -2 -12 5 -10 8 9 12 29 8
40 3 21 -10z m-71 -20 c0 -4 -13 -13 -30 -19 -25 -8 -30 -7 -30 6 0 11 -6 14
-24 9 -14 -3 -27 -2 -30 3 -3 4 21 8 54 9 33 0 60 -4 60 -8z m120 0 c0 -5 -9
-10 -20 -10 -10 0 -24 -9 -30 -20 -11 -21 -40 -28 -40 -9 0 6 7 9 15 5 8 -3
15 -1 15 5 0 16 24 38 43 39 9 0 17 -4 17 -10z m130 -11 c0 -6 -4 -7 -10 -4
-5 3 -10 11 -10 16 0 6 5 7 10 4 6 -3 10 -11 10 -16z m100 1 c0 -5 -4 -10 -10
-10 -5 0 -10 5 -10 10 0 6 5 10 10 10 6 0 10 -4 10 -10z m-129 -21 c16 -11 29
-29 29 -39 0 -11 7 -38 16 -60 9 -23 14 -43 11 -46 -5 -5 -27 38 -41 79 -3 9
-12 17 -21 17 -8 0 -15 9 -15 20 0 15 -7 20 -27 20 -27 1 -27 1 -9 15 25 19
22 19 57 -6z m109 -7 c0 -4 -5 -14 -10 -22 -8 -13 -10 -12 -10 3 0 9 -4 17
-10 17 -5 0 -10 7 -10 15 0 13 4 14 20 5 11 -6 20 -14 20 -18z m70 3 c0 -8 -4
-15 -10 -15 -5 0 -7 7 -4 15 4 8 8 15 10 15 2 0 4 -7 4 -15z m-273 -11 c-3 -3
-12 -4 -19 -1 -8 3 -5 6 6 6 11 1 17 -2 13 -5z m243 -9 c0 -8 -4 -15 -10 -15
-5 0 -10 7 -10 15 0 8 5 15 10 15 6 0 10 -7 10 -15z m-203 -27 c-3 -7 -5 -2
-5 12 0 14 2 19 5 13 2 -7 2 -19 0 -25z m-221 -45 c-3 -4 -6 -1 -6 5 0 7 -7
12 -15 12 -9 0 -15 9 -15 21 0 20 1 20 21 -5 12 -15 19 -30 15 -33z m31 25
c-3 -7 -5 -2 -5 12 0 14 2 19 5 13 2 -7 2 -19 0 -25z m103 -29 c0 -5 -7 -9
-15 -9 -9 0 -12 6 -9 15 6 15 24 11 24 -6z m247 -26 c-7 -6 -37 9 -37 19 0 5
5 6 10 3 6 -3 10 2 11 12 0 14 3 12 10 -6 5 -13 8 -26 6 -28z m-297 23 c0 -8
-4 -18 -10 -21 -5 -3 -10 -15 -10 -26 0 -10 -4 -19 -10 -19 -5 0 -10 6 -10 14
0 8 5 18 10 21 6 3 10 15 10 26 0 10 5 19 10 19 6 0 10 -6 10 -14z m-80 -47
c0 -6 -4 -7 -10 -4 -5 3 -10 11 -10 16 0 6 5 7 10 4 6 -3 10 -11 10 -16z m150
5 c0 -8 -4 -12 -10 -9 -5 3 -10 10 -10 16 0 5 5 9 10 9 6 0 10 -7 10 -16z
m-50 -26 c0 -5 -4 -8 -10 -8 -5 0 -10 10 -10 23 0 18 2 19 10 7 5 -8 10 -18
10 -22z m93 4 c-8 -22 -34 -52 -45 -52 -6 0 2 14 16 31 14 17 23 36 20 41 -4
7 -2 8 4 4 6 -4 8 -14 5 -24z m45 -37 c-3 -3 -9 2 -12 12 -6 14 -5 15 5 6 7
-7 10 -15 7 -18z m-133 5 c-3 -5 -10 -10 -16 -10 -5 0 -9 5 -9 10 0 6 7 10 16
10 8 0 12 -4 9 -10z m110 -39 c-3 -3 -10 1 -15 9 -8 13 -10 13 -10 1 0 -8 -3
-12 -6 -8 -3 3 -3 11 1 17 5 8 11 8 21 -1 8 -6 12 -14 9 -18z m45 5 c0 -2 -7
-9 -15 -16 -13 -11 -14 -10 -9 4 5 14 24 23 24 12z m-75 -88 c-27 -7 -73 8
-61 19 3 3 13 0 22 -8 15 -12 18 -12 28 3 8 13 13 14 24 5 12 -9 9 -13 -13
-19z m110 12 c-3 -5 -11 -10 -16 -10 -6 0 -7 5 -4 10 3 6 11 10 16 10 6 0 7
-4 4 -10z m-195 -45 c0 -9 7 -18 15 -21 8 -4 15 -12 15 -20 0 -24 -18 -15 -34
18 -19 37 -19 38 -6 38 6 0 10 -7 10 -15z m130 -4 c0 -17 -15 -19 -35 -5 -18
13 -18 14 8 14 15 0 27 -4 27 -9z m15 -51 c-3 -5 -11 -10 -16 -10 -6 0 -7 5
-4 10 3 6 11 10 16 10 6 0 7 -4 4 -10z m-109 -25 c4 -8 10 -15 15 -15 5 0 9 7
9 15 0 9 9 15 21 15 16 0 19 -3 11 -12 -11 -15 -13 -68 -2 -68 13 0 18 -38 7
-49 -8 -8 -6 -11 6 -11 10 0 17 8 17 19 0 22 16 36 24 22 4 -5 2 -13 -4 -16
-6 -4 -8 -15 -5 -26 4 -10 2 -19 -4 -19 -6 0 -10 -10 -8 -21 1 -12 -4 -24 -10
-26 -8 -3 -13 4 -13 17 0 14 -4 19 -12 14 -7 -5 -9 -2 -6 8 4 8 -2 22 -13 31
-10 9 -22 35 -25 57 -4 22 -13 45 -20 51 -8 6 -14 15 -14 20 0 15 20 10 26 -6z
m84 -24 c0 -11 6 -21 13 -24 20 -7 3 -17 -19 -11 -16 4 -20 12 -16 30 5 29 22
32 22 5z m40 -1 c0 -5 -4 -10 -10 -10 -5 0 -10 5 -10 10 0 6 5 10 10 10 6 0
10 -4 10 -10z m49 -97 c11 10 13 9 9 -3 -3 -8 -19 -16 -36 -17 -34 -3 -35 -1
-26 35 l7 23 16 -25 c14 -21 20 -23 30 -13z m-49 -43 c0 -5 -4 -10 -10 -10 -5
0 -10 5 -10 10 0 6 5 10 10 10 6 0 10 -4 10 -10z m782 -1682 c-15 -15 -26 -4
-18 18 5 13 9 15 18 6 9 -9 9 -15 0 -24z m-520 -703 c4 -16 5 -31 2 -34 -9 -9
-25 23 -20 41 2 9 0 19 -5 22 -5 2 -4 3 3 2 6 -1 15 -15 20 -31z m131 -62 c5
-26 2 -42 -7 -32 -9 11 -15 59 -7 59 5 0 11 -12 14 -27z m-87 -8 c-3 -8 1 -18
8 -22 7 -5 15 -18 18 -31 4 -12 2 -20 -3 -16 -5 3 -9 -1 -9 -8 -1 -7 -7 2 -16
21 -13 31 -11 71 3 71 3 0 3 -7 -1 -15z m124 -21 c0 -14 -4 -22 -10 -19 -5 3
-10 17 -10 31 0 14 4 22 10 19 6 -3 10 -17 10 -31z m-60 -128 c0 -3 -4 -8 -10
-11 -5 -3 -10 -1 -10 4 0 6 5 11 10 11 6 0 10 -2 10 -4z"/>
<path d="M4127 4273 c-14 -13 -6 -53 12 -62 31 -17 48 12 27 44 -17 25 -27 30
-39 18z"/>
<path d="M4510 4305 c0 -11 9 -15 30 -13 42 3 45 24 4 26 -25 2 -34 -1 -34
-13z"/>
<path d="M4577 4286 c-4 -9 -14 -12 -26 -9 -16 4 -20 0 -18 -16 1 -12 7 -21
14 -21 6 0 17 -8 22 -17 9 -16 10 -16 11 4 0 12 4 24 8 27 5 3 6 -8 4 -25 -5
-34 3 -38 18 -9 8 15 7 27 -5 50 -18 34 -21 36 -28 16z"/>
<path d="M4474 4248 c-23 -37 0 -78 33 -59 17 10 16 11 -4 17 -26 7 -32 34 -8
34 8 0 15 5 15 10 0 14 -27 12 -36 -2z"/>
<path d="M4580 4170 c0 -5 5 -10 11 -10 5 0 7 5 4 10 -3 6 -8 10 -11 10 -2 0
-4 -4 -4 -10z"/>
<path d="M4720 3943 c0 -7 -9 -13 -19 -13 -15 0 -18 -5 -13 -22 5 -22 4 -22
-15 -5 -26 23 -28 22 -30 -13 -2 -30 10 -40 22 -20 4 6 15 8 26 5 15 -5 19 -1
19 18 0 18 5 24 18 22 10 -1 16 -10 14 -21 -2 -17 -1 -17 8 -2 6 10 7 25 1 40
-6 13 -10 16 -11 8 0 -13 -1 -13 -10 0 -6 10 -10 11 -10 3z"/>
<path d="M4655 3850 c-3 -5 3 -10 14 -10 12 0 21 5 21 10 0 6 -6 10 -14 10 -8
0 -18 -4 -21 -10z"/>
<path d="M4710 3845 c-7 -8 -26 -15 -43 -15 -29 0 -30 -1 -11 -14 13 -10 23
-11 31 -4 14 12 33 2 33 -17 0 -7 7 -16 16 -19 20 -8 19 -8 29 23 7 22 5 23
-20 19 -24 -5 -26 -3 -22 18 5 28 4 29 -13 9z"/>
<path d="M4618 3839 c-10 -5 -18 -16 -18 -23 0 -20 27 -39 46 -32 14 5 14 7
-1 22 -9 9 -14 23 -11 30 6 16 6 16 -16 3z"/>
<path d="M4557 3799 c7 -7 15 -10 18 -7 3 3 -2 9 -12 12 -14 6 -15 5 -6 -5z"/>
<path d="M4573 3763 c-7 -2 -13 -11 -13 -19 0 -12 4 -12 20 -2 31 20 26 35 -7
21z"/>
<path d="M4739 3751 c14 -10 31 -17 38 -14 8 3 13 -3 13 -17 0 -17 -4 -21 -17
-16 -16 5 -16 4 -2 -6 15 -10 14 -14 -9 -33 -22 -19 -24 -25 -13 -38 7 -9 10
-21 6 -26 -9 -16 15 -53 30 -47 8 3 16 0 18 -7 2 -7 8 -8 13 -4 5 5 -2 17 -16
27 l-25 19 25 -6 c63 -16 102 -72 40 -58 -33 7 -39 -4 -14 -29 8 -9 12 -21 8
-27 -5 -9 1 -10 22 -5 16 4 29 8 29 9 0 1 6 12 13 25 8 14 8 22 1 22 -5 0 -8
4 -5 9 10 15 -12 61 -29 61 -11 0 -15 10 -15 35 0 19 -5 35 -11 35 -5 0 -7 5
-4 10 3 6 1 10 -5 10 -8 0 -9 10 -5 30 6 29 -9 44 -18 18 -2 -7 -2 -3 0 10 3
19 0 23 -15 18 -11 -4 -32 -2 -48 4 l-29 10 24 -19z m96 -111 c3 -5 1 -10 -4
-10 -6 0 -11 5 -11 10 0 6 2 10 4 10 3 0 8 -4 11 -10z"/>
<path d="M4640 3745 c7 -8 17 -15 22 -15 5 0 3 7 -6 15 -8 8 -18 15 -22 15 -3
0 -1 -7 6 -15z"/>
<path d="M4600 3704 c0 -8 5 -12 10 -9 6 3 10 10 10 16 0 5 -4 9 -10 9 -5 0
-10 -7 -10 -16z"/>
<path d="M4626 3701 c-4 -7 -5 -15 -2 -18 9 -9 19 4 14 18 -4 11 -6 11 -12 0z"/>
<path d="M4905 3480 c4 -6 11 -8 16 -5 14 9 11 15 -7 15 -8 0 -12 -5 -9 -10z"/>
<path d="M4700 3471 c0 -6 9 -11 19 -11 11 0 22 -6 25 -12 3 -7 5 -4 3 7 -2
21 -47 36 -47 16z"/>
<path d="M4601 3457 c-6 -8 -8 -17 -4 -20 3 -4 -6 -7 -20 -7 -20 0 -27 -5 -27
-20 0 -11 -7 -20 -15 -20 -8 0 -15 -4 -15 -10 0 -5 7 -10 16 -10 8 0 12 -5 9
-10 -4 -7 3 -8 22 -4 36 9 42 14 15 14 -17 0 -22 6 -22 26 0 14 4 23 9 20 4
-3 22 -1 39 4 19 5 34 5 37 -1 9 -14 22 -11 29 7 4 10 0 15 -12 13 -34 -3 -53
1 -47 11 3 5 13 7 23 4 14 -5 15 -4 2 5 -20 14 -25 14 -39 -2z"/>
<path d="M4720 3430 c8 -5 20 -10 25 -10 6 0 3 5 -5 10 -8 5 -19 10 -25 10 -5
0 -3 -5 5 -10z"/>
<path d="M4580 3390 c0 -5 11 -10 25 -10 14 0 25 5 25 10 0 6 -11 10 -25 10
-14 0 -25 -4 -25 -10z"/>
<path d="M4717 3389 c7 -7 15 -10 18 -7 3 3 -2 9 -12 12 -14 6 -15 5 -6 -5z"/>
<path d="M4545 3290 c-3 -5 -1 -10 4 -10 6 0 11 5 11 10 0 6 -2 10 -4 10 -3 0
-8 -4 -11 -10z"/>
<path d="M4520 3261 c0 -12 5 -21 10 -21 6 0 10 6 10 14 0 8 -4 18 -10 21 -5
3 -10 -3 -10 -14z"/>
<path d="M2735 3060 c11 -5 27 -9 35 -9 13 -1 13 0 0 9 -8 5 -24 9 -35 9 l-20
0 20 -9z"/>
<path d="M1370 3020 c-31 -17 -32 -19 -12 -20 27 0 62 17 62 30 0 14 -10 12
-50 -10z"/>
<path d="M1181 2839 c-40 -16 -18 -19 29 -4 31 9 37 14 20 14 -14 0 -36 -5
-49 -10z"/>
<path d="M1472 2793 c-7 -3 -25 -16 -40 -30 -41 -38 -91 -60 -154 -66 -58 -6
-114 -27 -90 -35 9 -3 6 -13 -12 -37 -14 -18 -23 -35 -20 -38 4 -3 -4 -16 -16
-29 -19 -21 -21 -21 -15 -3 7 20 6 20 -9 1 -18 -22 -21 -56 -6 -56 5 0 -2 -11
-15 -25 -14 -13 -25 -31 -25 -40 0 -8 -5 -15 -11 -15 -6 0 -8 9 -4 23 4 13 -4
6 -21 -18 -43 -64 -76 -95 -101 -95 -33 0 -28 -12 17 -37 48 -28 60 -28 94 -2
31 24 50 65 65 141 7 30 26 76 44 103 35 54 130 133 162 136 17 1 16 2 -5 9
-19 6 -13 7 26 7 73 -1 143 43 151 95 2 10 2 18 0 17 -1 0 -8 -3 -15 -6z
m-347 -273 c3 -5 1 -10 -4 -10 -6 0 -11 5 -11 10 0 6 2 10 4 10 3 0 8 -4 11
-10z"/>
<path d="M2907 2739 c7 -7 15 -10 18 -7 3 3 -2 9 -12 12 -14 6 -15 5 -6 -5z"/>
<path d="M1460 2660 c-13 -11 -27 -20 -32 -20 -5 0 -16 -7 -24 -15 -14 -13
-14 -15 0 -15 9 0 33 16 54 35 39 37 41 49 2 15z"/>
<path d="M996 2595 c-40 -48 -42 -59 -4 -22 22 21 52 67 44 67 -2 0 -20 -20
-40 -45z"/>
<path d="M1370 2561 c-52 -21 -104 -44 -116 -51 -25 -16 -84 -111 -84 -136 0
-27 -60 -186 -78 -207 -9 -10 -20 -16 -26 -14 -17 6 -86 -34 -86 -49 0 -9 -11
-14 -33 -14 -32 0 -57 -15 -57 -34 0 -5 9 -1 19 8 22 20 52 18 59 -3 3 -8 0
-11 -6 -7 -6 3 -20 -6 -32 -21 -12 -15 -17 -29 -11 -31 10 -3 -1 -49 -20 -85
-5 -10 -6 -24 -2 -32 6 -10 22 4 61 51 29 35 56 64 61 64 6 0 35 25 65 56 31
30 62 54 69 51 6 -2 24 2 40 10 15 7 27 11 27 9 0 -3 -20 -26 -45 -52 -25 -25
-45 -51 -45 -57 0 -20 -79 -133 -130 -187 -29 -30 -63 -72 -76 -92 -13 -21
-28 -38 -33 -38 -5 0 -21 -30 -36 -67 -15 -38 -35 -77 -44 -88 -27 -30 -53
-93 -49 -118 3 -20 10 -22 71 -25 50 -2 78 2 113 17 40 18 44 23 34 40 -8 15
-6 39 5 92 8 40 17 74 19 76 2 3 9 -5 16 -16 6 -12 17 -21 24 -21 7 0 26 -18
41 -39 24 -35 30 -39 52 -30 36 13 70 11 87 -7 18 -17 22 -64 5 -64 -5 0 -7
-4 -4 -10 3 -5 1 -10 -4 -10 -6 0 -11 -5 -11 -11 0 -17 -40 -49 -82 -66 -37
-15 -66 -47 -71 -80 -1 -10 -6 -23 -10 -30 -11 -18 10 -25 35 -12 13 7 50 32
82 57 68 52 122 75 148 61 26 -14 48 -50 48 -80 0 -26 -50 -85 -104 -122 -15
-10 -24 -22 -21 -26 2 -5 -3 -15 -12 -22 -14 -12 -16 -12 -9 1 5 8 -8 -3 -27
-24 -20 -21 -33 -44 -30 -50 4 -6 -2 -4 -12 4 -11 9 -16 10 -11 3 4 -8 2 -13
-4 -13 -7 0 -10 -6 -7 -12 2 -7 11 -12 21 -10 9 2 16 -2 16 -9 0 -6 26 13 58
42 62 56 114 84 179 95 34 5 43 3 50 -12 23 -45 -1 -105 -41 -102 -23 2 -126
-52 -164 -86 -13 -12 -37 -41 -55 -66 -17 -25 -36 -50 -42 -56 -12 -13 -99
-68 -102 -66 -11 7 -22 -3 -36 -33 -11 -22 -24 -35 -36 -35 -11 0 -36 -21 -58
-49 -27 -34 -44 -47 -53 -41 -20 12 -83 3 -96 -14 -6 -9 -18 -16 -27 -16 -9 0
-28 -12 -44 -26 -15 -14 -35 -23 -44 -21 -36 10 -43 -7 -30 -73 16 -80 17
-217 2 -254 -10 -26 -10 -28 4 -16 8 7 15 10 15 7 0 -10 150 62 198 95 59 40
432 414 432 432 0 3 13 26 29 52 17 25 33 60 37 78 3 17 20 48 36 68 28 36 31
37 51 23 26 -18 68 -20 85 -3 6 6 14 10 16 7 2 -2 36 -67 75 -144 95 -185 136
-256 144 -248 4 3 7 -1 7 -10 0 -8 7 -22 15 -31 9 -8 14 -17 13 -20 -2 -2 11
-21 27 -41 77 -94 102 -113 182 -134 40 -11 102 -6 183 14 14 4 43 8 66 9 26
2 57 14 86 34 25 17 49 28 54 24 5 -4 2 2 -6 12 -14 18 -14 19 6 8 25 -13 46
2 37 26 -4 10 -2 13 5 8 7 -4 20 -3 29 3 16 9 15 10 -7 9 -14 -1 -31 -6 -37
-11 -21 -16 -15 5 10 31 21 24 21 24 1 14 -22 -12 -88 -11 -100 1 -4 4 4 8 17
8 17 1 19 3 7 6 -10 2 -18 11 -18 19 0 8 -10 14 -21 14 -16 0 -20 5 -16 20 3
11 0 20 -6 20 -8 0 -8 3 1 8 7 5 10 16 6 25 -4 13 -1 17 15 17 35 0 24 14 -26
32 -32 11 -51 14 -59 7 -7 -5 -16 -9 -20 -8 -22 4 -34 -2 -34 -16 0 -9 -9 -15
-21 -15 -14 0 -19 5 -16 14 4 10 -2 16 -16 18 -34 5 -33 34 2 46 19 7 31 18
31 29 0 10 7 27 15 37 8 11 15 25 15 30 0 6 -4 5 -9 -2 -6 -11 -10 -11 -19 0
-17 21 12 78 40 78 60 1 84 74 37 113 -20 16 -33 18 -84 12 -112 -13 -162 -9
-194 17 -17 12 -30 28 -30 34 -1 13 -39 23 -59 16 -7 -2 -12 -10 -12 -19 0 -8
-6 -21 -14 -29 -17 -16 -56 -19 -56 -4 0 6 -8 10 -18 10 -11 0 -27 9 -37 20
-10 11 -23 20 -29 20 -6 0 -5 -5 2 -12 7 -7 12 -27 12 -45 0 -34 8 -41 26 -23
8 8 15 6 25 -6 10 -13 10 -16 1 -10 -7 4 -19 3 -27 -4 -15 -13 -54 2 -68 26
-4 8 -13 14 -20 14 -7 0 -23 10 -37 23 -14 12 -41 34 -60 47 -19 13 -40 31
-47 40 -6 8 -16 15 -22 15 -6 0 -10 2 -9 5 2 3 -7 19 -19 35 -26 38 -85 162
-108 230 -42 126 -47 159 -49 355 -2 177 -1 198 16 222 30 44 56 138 38 138
-6 0 -9 -4 -6 -8 3 -5 -24 -36 -60 -71 -62 -60 -76 -91 -40 -91 25 0 52 -111
34 -143 -9 -18 -12 -16 -35 19 l-24 39 5 -39 c3 -21 2 -36 -1 -32 -3 3 -12 1
-19 -5 -19 -16 -44 -4 -44 21 0 12 4 19 9 16 12 -8 34 21 26 33 -3 6 -6 43 -6
81 0 60 4 77 23 103 13 18 32 50 42 72 9 22 22 48 27 58 7 13 7 42 -1 93 -6
41 -8 89 -5 107 10 49 51 105 93 126 20 10 47 30 58 43 23 24 59 78 53 78 -2
-1 -47 -18 -99 -39z m-102 -381 c1 -23 0 -23 -8 -5 -5 11 -8 36 -8 55 l0 35 8
-30 c4 -16 8 -41 8 -55z m-348 -274 c0 -3 -4 -8 -10 -11 -5 -3 -10 -1 -10 4 0
6 5 11 10 11 6 0 10 -2 10 -4z m950 -891 c0 -16 -6 -25 -15 -25 -18 0 -19 4
-3 30 16 26 18 25 18 -5z"/>
<path d="M2068 2535 c-2 -2 -37 -4 -78 -6 -52 -2 -83 -8 -102 -21 -14 -10 -30
-18 -35 -18 -4 -1 -26 -9 -47 -19 -22 -11 -46 -17 -53 -14 -8 3 -11 0 -8 -9 4
-9 -8 -20 -35 -32 -22 -9 -40 -21 -40 -24 0 -4 -11 -19 -25 -34 -52 -56 -105
-142 -105 -170 0 -23 4 -28 24 -28 52 0 88 13 98 36 6 13 16 24 23 24 12 0 55
45 55 58 0 4 9 13 20 20 11 7 20 19 20 27 0 22 41 45 80 45 19 0 53 -10 75
-23 32 -18 41 -30 48 -64 6 -34 13 -43 39 -52 39 -14 29 -27 -39 -53 -59 -22
-90 -23 -156 -1 -35 12 -52 13 -55 5 -2 -6 -9 -9 -16 -6 -22 8 -14 -27 9 -42
44 -29 205 -16 244 20 10 10 30 18 44 20 43 4 131 79 149 126 26 67 26 108 1
151 -13 23 -31 48 -41 55 -17 12 -88 34 -94 29z m-107 -101 c18 -19 17 -19
-54 -19 -68 0 -76 -3 -139 -43 -53 -33 -68 -39 -68 -26 0 22 71 85 113 101 45
17 124 10 148 -13z m139 -170 c0 -20 -7 -17 -20 6 -9 16 -8 18 5 14 8 -4 15
-12 15 -20z"/>
<path d="M3040 2503 c0 -10 93 -54 99 -47 8 8 -23 33 -46 37 -12 2 -26 6 -29
10 -10 9 -24 9 -24 0z"/>
<path d="M1365 2425 c-56 -54 -57 -56 -55 -108 5 -101 0 -168 -10 -162 -9 6
-11 2 -14 -32 -1 -6 -10 -21 -21 -34 l-20 -22 22 12 c41 21 63 81 63 171 0 44
4 79 9 78 5 -2 27 32 49 75 22 42 39 77 37 77 -2 0 -29 -25 -60 -55z"/>
<path d="M1300 2399 c-12 -23 -19 -44 -16 -47 3 -3 6 -1 6 5 0 6 11 27 25 47
13 20 20 36 15 36 -5 0 -19 -18 -30 -41z"/>
<path d="M2615 2406 c-16 -6 -39 -19 -49 -28 -11 -10 -27 -18 -36 -18 -20 0
-54 -45 -64 -83 -8 -32 1 -70 14 -62 4 3 13 -1 19 -9 8 -10 22 -11 51 -6 48 9
63 20 29 21 -14 1 -17 3 -8 6 10 2 15 12 12 26 -5 34 19 56 76 70 28 6 51 15
51 19 0 12 -82 -2 -107 -18 -35 -22 -37 -17 -5 22 17 20 48 45 69 55 l38 17
-30 0 c-16 0 -43 -5 -60 -12z"/>
<path d="M960 2400 c-8 -5 -12 -12 -9 -15 4 -3 12 1 19 10 14 17 11 19 -10 5z"/>
<path d="M2769 2319 c46 -33 71 -79 71 -131 1 -27 2 -30 11 -16 13 24 -6 96
-34 126 -21 23 -68 52 -83 52 -4 0 12 -14 35 -31z"/>
<path d="M1111 2307 c-15 -46 -76 -105 -121 -118 -31 -9 -44 -8 -73 6 -20 9
-43 15 -50 12 -17 -6 -40 -91 -27 -95 5 -2 7 -11 4 -20 -3 -9 4 -4 16 11 28
35 91 68 118 60 30 -7 88 14 105 40 18 28 51 127 44 133 -3 3 -10 -10 -16 -29z"/>
<path d="M848 2314 c-16 -8 -28 -19 -28 -25 0 -5 14 0 30 13 43 31 42 36 -2
12z"/>
<path d="M1770 2241 c0 -5 -8 -12 -17 -14 -11 -3 -7 -5 10 -6 18 -1 27 4 27
14 0 8 -4 15 -10 15 -5 0 -10 -4 -10 -9z"/>
<path d="M3062 2230 c0 -14 2 -19 5 -12 2 6 2 18 0 25 -3 6 -5 1 -5 -13z"/>
<path d="M955 2210 l-30 -8 32 -1 c17 0 35 4 38 9 7 11 3 11 -40 0z"/>
<path d="M2872 2150 c0 -19 2 -27 5 -17 2 9 2 25 0 35 -3 9 -5 1 -5 -18z"/>
<path d="M3068 2163 c-2 -5 -1 -28 3 -53 6 -43 6 -43 8 -10 2 19 4 43 6 53 3
17 -10 24 -17 10z"/>
<path d="M999 1973 c-13 -16 -12 -17 4 -4 9 7 17 15 17 17 0 8 -8 3 -21 -13z"/>
<path d="M3016 1924 c-5 -14 -4 -15 9 -4 17 14 19 20 6 20 -5 0 -12 -7 -15
-16z"/>
<path d="M2308 1761 c-21 -11 -40 -15 -44 -10 -3 5 -13 5 -25 -1 -11 -6 -24
-8 -29 -5 -6 3 -10 1 -10 -5 0 -6 -8 -9 -18 -6 -11 4 -27 -2 -41 -16 l-24 -21
-19 24 -19 24 5 -45 c3 -25 5 -48 5 -52 1 -4 22 -9 49 -13 87 -11 120 -24 147
-59 32 -42 32 -58 1 -50 -18 4 -25 1 -29 -15 -4 -15 -13 -21 -35 -21 -17 0
-53 -5 -81 -12 -45 -10 -53 -9 -71 7 -17 16 -25 17 -59 7 -65 -20 -67 -18 -44
46 10 24 -16 11 -29 -15 -8 -17 -21 -27 -30 -25 -25 4 -33 -19 -9 -25 23 -6
27 -18 11 -28 -8 -5 -7 -11 1 -21 9 -11 9 -17 -1 -29 -15 -17 -4 -37 18 -33
10 1 23 -1 30 -6 9 -5 18 -2 26 10 11 15 19 16 56 6 35 -9 47 -8 67 5 31 21
164 14 187 -10 17 -16 41 -13 86 10 38 20 90 15 138 -12 23 -13 42 -19 42 -13
0 6 11 8 29 5 23 -5 30 -2 34 15 8 30 -7 61 -37 77 -23 13 -28 12 -44 -2 -23
-21 -36 -21 -51 -3 -6 7 -33 19 -59 26 -80 20 -80 20 -49 36 37 20 34 23 -15
18 -40 -4 -42 -3 -24 11 11 8 25 15 32 15 6 0 19 12 29 26 10 15 22 23 31 20
8 -3 14 -1 14 5 0 5 8 9 18 7 10 -2 17 3 17 12 0 8 12 23 28 32 34 22 35 45 2
60 -31 14 -74 -3 -82 -32 -3 -11 -11 -20 -18 -20 -7 0 -16 -6 -18 -12 -4 -9
-6 -9 -6 -1 -1 6 10 25 24 41 27 32 32 64 13 79 -22 16 -81 13 -120 -6z"/>
<path d="M1794 1622 c-10 -10 -30 -18 -42 -19 -35 -3 -102 -83 -70 -83 6 0 8
-3 5 -7 -4 -3 -2 -12 4 -20 9 -10 8 -17 -2 -30 -11 -13 -11 -17 -1 -20 6 -3
12 -11 12 -19 0 -8 9 -14 20 -14 11 0 20 -4 20 -9 0 -15 54 -45 58 -33 2 7 10
12 18 12 17 0 18 -32 2 -48 -10 -10 -10 -15 2 -22 9 -5 18 -4 24 5 6 7 20 15
30 17 23 4 34 28 14 28 -9 0 -14 12 -14 37 0 20 -5 38 -12 41 -7 2 -12 16 -12
30 0 22 -2 24 -10 12 -8 -11 -9 -8 -4 13 4 16 1 33 -6 42 -7 8 -10 24 -7 36 4
14 -1 23 -16 29 -19 7 -20 9 -5 15 9 4 23 3 30 -1 10 -6 10 -4 -1 9 -16 21
-13 21 -37 -1z m61 -231 c3 -5 1 -12 -5 -16 -5 -3 -10 1 -10 9 0 18 6 21 15 7z"/>
<path d="M1705 1620 c-3 -5 -1 -10 4 -10 6 0 11 5 11 10 0 6 -2 10 -4 10 -3 0
-8 -4 -11 -10z"/>
<path d="M1902 1525 c-11 -12 -10 -15 3 -15 8 0 15 7 15 15 0 18 -2 18 -18 0z"/>
<path d="M1080 1510 c0 -5 5 -10 10 -10 6 0 10 5 10 10 0 6 -4 10 -10 10 -5 0
-10 -4 -10 -10z"/>
<path d="M2235 1329 c-16 -5 -42 -7 -57 -5 -23 5 -28 2 -28 -14 0 -11 -5 -20
-12 -20 -29 0 21 -31 58 -36 21 -2 62 -10 91 -16 41 -9 56 -8 68 2 8 7 21 10
30 7 19 -8 27 7 19 37 -5 20 -15 27 -52 35 -26 6 -56 13 -67 15 -11 3 -33 0
-50 -5z"/>
<path d="M4409 1233 c2 -21 6 -32 8 -25 8 22 20 13 16 -12 -4 -20 -1 -24 13
-21 11 1 27 -7 36 -19 14 -17 20 -18 27 -8 4 8 12 13 17 12 5 0 11 9 12 21 2
13 0 19 -7 15 -6 -4 -11 -2 -11 3 0 6 7 11 15 11 10 0 15 -10 15 -27 0 -36 25
-61 55 -55 26 5 35 22 11 22 -8 0 -17 7 -20 17 -6 14 -8 14 -21 -3 -8 -10 -15
-16 -15 -11 0 9 23 50 33 58 15 11 -110 59 -156 59 -32 0 -33 -1 -28 -37z m31
12 c0 -8 -4 -15 -10 -15 -5 0 -7 7 -4 15 4 8 8 15 10 15 2 0 4 -7 4 -15z"/>
<path d="M1820 1231 c0 -6 5 -13 10 -16 6 -3 10 1 10 9 0 9 -4 16 -10 16 -5 0
-10 -4 -10 -9z"/>
<path d="M1830 1186 c0 -24 12 -46 21 -40 15 9 10 54 -6 54 -8 0 -15 -6 -15
-14z"/>
<path d="M4602 1186 c7 -8 15 -12 17 -11 5 6 -10 25 -20 25 -5 0 -4 -6 3 -14z"/>
<path d="M4462 1150 c0 -14 2 -19 5 -12 2 6 2 18 0 25 -3 6 -5 1 -5 -13z"/>
<path d="M4638 1140 c2 -17 9 -33 15 -37 6 -4 7 4 3 23 -10 41 -24 51 -18 14z"/>
<path d="M4410 1150 c0 -5 5 -10 11 -10 5 0 7 5 4 10 -3 6 -8 10 -11 10 -2 0
-4 -4 -4 -10z"/>
<path d="M4486 1098 c1 -15 -2 -25 -7 -22 -17 10 -9 -12 11 -29 18 -15 20 -15
20 -1 0 11 6 15 20 11 11 -3 18 -1 14 4 -3 5 0 9 5 9 6 0 11 4 11 10 0 6 -9 6
-25 0 -14 -5 -27 -5 -30 0 -3 5 4 10 15 12 18 3 17 5 -8 19 -28 16 -28 16 -26
-13z"/>
<path d="M4441 1104 c0 -11 3 -14 6 -6 3 7 2 16 -1 19 -3 4 -6 -2 -5 -13z"/>
<path d="M4530 1020 c0 -5 5 -10 11 -10 5 0 7 5 4 10 -3 6 -8 10 -11 10 -2 0
-4 -4 -4 -10z"/>
<path d="M4879 944 c-10 -13 -10 -20 4 -43 9 -16 13 -32 9 -36 -4 -5 2 -5 13
-1 11 5 25 9 32 10 7 1 16 6 20 11 4 4 1 5 -7 1 -8 -4 -6 0 4 8 20 16 13 21
-22 17 -7 -1 -12 2 -11 6 3 12 -12 43 -21 43 -4 0 -13 -7 -21 -16z"/>
<path d="M2633 905 c-6 -7 -9 -16 -6 -19 4 -3 1 -6 -6 -6 -18 0 -145 -105
-176 -145 -14 -19 -32 -35 -40 -35 -7 0 -27 -12 -44 -26 -17 -14 -35 -23 -40
-20 -5 4 -12 2 -16 -4 -3 -5 3 -10 14 -10 11 0 24 -6 28 -14 11 -18 50 -29 58
-16 3 5 15 10 27 10 11 0 38 18 60 40 37 37 53 45 85 41 6 -1 14 3 18 9 3 5 1
10 -5 10 -11 0 27 75 65 129 27 37 33 60 11 42 -12 -10 -15 -8 -18 7 -2 16 -5
17 -15 7z"/>
<path d="M4872 875 c0 -16 2 -22 5 -12 2 9 2 23 0 30 -3 6 -5 -1 -5 -18z"/>
<path d="M4945 850 c-16 -7 -17 -9 -3 -9 9 -1 20 4 23 9 7 11 7 11 -20 0z"/>
<path d="M2320 546 c0 -9 5 -16 10 -16 6 0 10 4 10 9 0 6 -4 13 -10 16 -5 3
-10 -1 -10 -9z"/>
<path d="M2473 463 c0 -9 4 -10 14 -2 7 6 13 12 13 14 0 1 -6 2 -13 2 -8 0
-14 -6 -14 -14z"/>
<path d="M2435 460 c-3 -5 -2 -10 4 -10 5 0 13 5 16 10 3 6 2 10 -4 10 -5 0
-13 -4 -16 -10z"/>
</g>
</svg>
